<svg width="200" height="50" viewBox="0 0 200 50" fill="none" xmlns="http://www.w3.org/2000/svg">
<path d="M3.83494 37.3317C5.28003 36.887 5.50235 32.3294 5.39119 28.3832C5.7432 26.2341 6.5695 23.3587 7.0586 29.0502C7.66999 36.1645 6.00258 38.4433 5.83584 38.7767C5.66909 39.1102 4.11284 39.2214 3.44588 39.1102C2.77891 38.9991 2.38985 37.7763 3.83494 37.3317Z" fill="#B800AE"/>
<path fill-rule="evenodd" clip-rule="evenodd" d="M1.04606 37.8331C2.19288 37.3345 2.22141 35.9412 2.2954 32.3291C2.30389 31.9149 2.31297 31.4714 2.32441 30.9967C2.32441 30.9226 2.2466 29.6294 1.93535 25.0496C1.87917 24.1908 1.81972 23.3888 1.76397 22.6367C1.43365 18.1804 1.2332 15.4762 2.61228 13.0985C4.22411 10.3195 8.55938 10.7086 9.43871 11.9326C9.93013 12.6167 11.3379 12.5189 12.6492 12.4278C13.5217 12.3671 14.3514 12.3095 14.84 12.4871C15.1179 15.0994 13.3849 16.1567 11.9954 16.657C10.6059 17.1572 8.55938 18.4898 9.27197 21.159C6.49295 19.6027 5.54808 17.9353 4.10299 15.1007C4.83674 21.1338 9.58744 23.3312 13.2922 25.0448C14.6387 25.6676 15.8471 26.2265 16.6741 26.8825C21.5096 30.7175 19.6199 35.3307 18.3316 37.5552C21.1206 36.8882 22.2322 34.9416 22.778 32.553C24.0008 37.4996 19.8878 39.2782 17.3867 39.5005C14.8856 39.7228 7.15991 39.834 6.0483 39.5005C5.88156 37.055 8.0492 36.9438 9.43871 36.8882C9.71661 33.0532 7.71572 30.384 6.0483 29.9394C6.0483 37.5552 4.08446 39.4079 3.43602 39.6117C2.78758 39.6487 1.31285 39.6784 0.601418 39.5005C-0.287869 39.2782 -0.232288 38.3889 1.04606 37.8331ZM8.72613 13.4321C8.94846 13.2987 9.1152 12.6725 9.17078 12.3761L9.55984 13.0986C9.54131 13.1727 9.34863 13.3432 8.72613 13.4321ZM14.1172 12.7235C14.3025 12.705 14.6175 12.6761 14.6175 12.7651C14.6175 12.7853 14.6211 12.8207 14.6258 12.8657C14.6469 13.0683 14.6882 13.4663 14.5063 13.5573C14.3396 13.5573 14.1172 13.057 14.1172 12.7235Z" fill="#CF18C5"/>
<path d="M10.449 19.2125C7.82558 20.0129 4.77984 13.3766 4.00164 14.7661C3.22345 16.1556 6.28044 22.0471 8.3925 22.4917C10.5046 22.9364 13.7282 18.2121 10.449 19.2125Z" fill="#B800AE"/>
<path d="M35.346 30.4326L38.5691 16.8176H40.3696L40.7809 19.0849L37.3465 33H35.4127L35.346 30.4326ZM33.6899 16.8176L36.3574 30.4326L36.1351 33H33.9789L30.389 16.8176H33.6899ZM43.615 30.377L46.2491 16.8176H49.55L45.9712 33H43.8151L43.615 30.377ZM41.381 16.8176L44.6264 30.4882L44.5375 33H42.6036L39.1471 19.0738L39.5916 16.8176H41.381ZM58.7527 16.8176V33H55.4295V16.8176H58.7527ZM63.7319 16.8176V19.4295H50.5281V16.8176H63.7319ZM75.6686 33H72.1454L72.1676 30.3993H75.6686C76.5429 30.3993 77.2802 30.2029 77.8804 29.8102C78.4805 29.4101 78.9325 28.8284 79.2363 28.0653C79.5475 27.3021 79.7031 26.3796 79.7031 25.2978V24.5087C79.7031 23.6788 79.6142 22.949 79.4364 22.3192C79.2659 21.6894 79.0103 21.1596 78.6695 20.7298C78.3286 20.3001 77.91 19.9778 77.4136 19.7629C76.9171 19.5406 76.3466 19.4295 75.702 19.4295H72.0787V16.8176H75.702C76.7837 16.8176 77.7729 17.0028 78.6695 17.3733C79.5734 17.7364 80.3551 18.2587 81.0146 18.9404C81.674 19.6221 82.1816 20.4371 82.5372 21.3856C82.9003 22.3266 83.0818 23.375 83.0818 24.5309V25.2978C83.0818 26.4463 82.9003 27.4947 82.5372 28.4431C82.1816 29.3916 81.674 30.2066 81.0146 30.8883C80.3625 31.5626 79.5808 32.0849 78.6695 32.4554C77.7655 32.8185 76.7652 33 75.6686 33ZM74.0348 16.8176V33H70.7005V16.8176H74.0348ZM98.7974 24.5309V25.2978C98.7974 26.5278 98.6307 27.6318 98.2973 28.6099C97.9639 29.5879 97.4934 30.4215 96.8858 31.1106C96.2782 31.7922 95.5521 32.3146 94.7074 32.6777C93.8701 33.0408 92.9402 33.2223 91.9177 33.2223C90.9026 33.2223 89.9727 33.0408 89.128 32.6777C88.2907 32.3146 87.5646 31.7922 86.9496 31.1106C86.3346 30.4215 85.8567 29.5879 85.5159 28.6099C85.1824 27.6318 85.0157 26.5278 85.0157 25.2978V24.5309C85.0157 23.2935 85.1824 22.1895 85.5159 21.2189C85.8493 20.2408 86.3198 19.4072 86.9274 18.7181C87.5424 18.0291 88.2685 17.503 89.1058 17.1399C89.9505 16.7768 90.8804 16.5953 91.8955 16.5953C92.918 16.5953 93.8479 16.7768 94.6852 17.1399C95.5298 17.503 96.256 18.0291 96.8636 18.7181C97.4786 19.4072 97.9528 20.2408 98.2862 21.2189C98.627 22.1895 98.7974 23.2935 98.7974 24.5309ZM95.4298 25.2978V24.5087C95.4298 23.6492 95.352 22.8934 95.1964 22.2414C95.0408 21.5893 94.8111 21.041 94.5073 20.5965C94.2035 20.1519 93.8331 19.8185 93.3959 19.5962C92.9587 19.3665 92.4586 19.2516 91.8955 19.2516C91.3324 19.2516 90.8322 19.3665 90.395 19.5962C89.9653 19.8185 89.5985 20.1519 89.2947 20.5965C88.9984 21.041 88.7724 21.5893 88.6168 22.2414C88.4612 22.8934 88.3834 23.6492 88.3834 24.5087V25.2978C88.3834 26.1499 88.4612 26.9057 88.6168 27.5651C88.7724 28.2172 89.0021 28.7692 89.3058 29.2211C89.6096 29.6657 89.9801 30.0028 90.4173 30.2325C90.8544 30.4622 91.3546 30.5771 91.9177 30.5771C92.4808 30.5771 92.981 30.4622 93.4181 30.2325C93.8553 30.0028 94.2221 29.6657 94.5184 29.2211C94.8148 28.7692 95.0408 28.2172 95.1964 27.5651C95.352 26.9057 95.4298 26.1499 95.4298 25.2978ZM114.024 24.542V30.955C113.772 31.2588 113.383 31.5885 112.857 31.9441C112.331 32.2924 111.653 32.5925 110.823 32.8444C109.993 33.0963 108.989 33.2223 107.811 33.2223C106.766 33.2223 105.814 33.0519 104.955 32.711C104.095 32.3628 103.354 31.8552 102.732 31.1884C102.117 30.5215 101.643 29.7065 101.309 28.7432C100.976 27.7726 100.809 26.6649 100.809 25.4201V24.4087C100.809 23.1639 100.968 22.0561 101.287 21.0855C101.613 20.1148 102.076 19.2961 102.676 18.6292C103.277 17.9624 103.992 17.4548 104.821 17.1066C105.651 16.7583 106.574 16.5842 107.589 16.5842C108.997 16.5842 110.153 16.8139 111.057 17.2733C111.96 17.7253 112.65 18.3551 113.124 19.1627C113.605 19.9629 113.902 20.8817 114.013 21.9191H110.779C110.697 21.3707 110.542 20.8928 110.312 20.4853C110.082 20.0778 109.752 19.7592 109.323 19.5295C108.9 19.2998 108.352 19.1849 107.678 19.1849C107.122 19.1849 106.626 19.2998 106.188 19.5295C105.759 19.7518 105.396 20.0815 105.099 20.5187C104.803 20.9558 104.577 21.4967 104.421 22.1413C104.266 22.786 104.188 23.5343 104.188 24.3864V25.4201C104.188 26.2647 104.269 27.0131 104.432 27.6651C104.595 28.3098 104.836 28.8544 105.155 29.2989C105.481 29.7361 105.881 30.0658 106.355 30.2881C106.829 30.5104 107.381 30.6215 108.011 30.6215C108.537 30.6215 108.974 30.5771 109.323 30.4882C109.678 30.3993 109.964 30.2918 110.178 30.1659C110.401 30.0325 110.571 29.9065 110.69 29.788V26.9205H107.644V24.542H114.024Z" fill="#252525"/>
<path d="M130.807 28.7655C130.807 28.4765 130.762 28.2172 130.673 27.9875C130.592 27.7504 130.436 27.5355 130.206 27.3428C129.977 27.1428 129.654 26.9464 129.239 26.7538C128.825 26.5611 128.287 26.3611 127.628 26.1536C126.894 25.9165 126.198 25.6498 125.538 25.3534C124.886 25.057 124.308 24.7124 123.805 24.3197C123.308 23.9196 122.915 23.4565 122.626 22.9305C122.345 22.4044 122.204 21.7931 122.204 21.0966C122.204 20.4223 122.352 19.811 122.649 19.2627C122.945 18.707 123.36 18.2328 123.894 17.8401C124.427 17.44 125.057 17.1325 125.783 16.9176C126.516 16.7027 127.32 16.5953 128.195 16.5953C129.388 16.5953 130.429 16.8102 131.318 17.2399C132.207 17.6697 132.896 18.2587 133.385 19.0071C133.882 19.7555 134.13 20.6113 134.13 21.5745H130.818C130.818 21.1003 130.718 20.6854 130.518 20.3297C130.325 19.9666 130.029 19.6814 129.628 19.4739C129.236 19.2664 128.739 19.1627 128.139 19.1627C127.561 19.1627 127.08 19.2516 126.694 19.4295C126.309 19.5999 126.02 19.8333 125.827 20.1297C125.635 20.4186 125.538 20.7446 125.538 21.1077C125.538 21.3819 125.605 21.6301 125.738 21.8524C125.879 22.0747 126.087 22.2821 126.361 22.4748C126.635 22.6674 126.972 22.8489 127.372 23.0194C127.772 23.1898 128.235 23.3565 128.762 23.5195C129.643 23.7863 130.418 24.0863 131.084 24.4198C131.759 24.7532 132.322 25.1274 132.774 25.5423C133.226 25.9572 133.567 26.4278 133.796 26.9538C134.026 27.4799 134.141 28.0764 134.141 28.7432C134.141 29.4471 134.004 30.0769 133.73 30.6327C133.456 31.1884 133.059 31.6589 132.54 32.0442C132.022 32.4295 131.403 32.7221 130.684 32.9222C129.966 33.1223 129.162 33.2223 128.273 33.2223C127.472 33.2223 126.683 33.1186 125.905 32.9111C125.127 32.6962 124.42 32.3739 123.782 31.9441C123.153 31.5144 122.649 30.9661 122.271 30.2992C121.893 29.6324 121.704 28.8433 121.704 27.9319H125.049C125.049 28.4357 125.127 28.8618 125.283 29.21C125.438 29.5583 125.657 29.8398 125.939 30.0547C126.228 30.2696 126.568 30.4252 126.961 30.5215C127.361 30.6178 127.798 30.666 128.273 30.666C128.85 30.666 129.325 30.5845 129.695 30.4215C130.073 30.2585 130.351 30.0325 130.529 29.7435C130.714 29.4545 130.807 29.1285 130.807 28.7655ZM147.267 30.3993V33H138.653V30.3993H147.267ZM139.742 16.8176V33H136.408V16.8176H139.742ZM146.144 23.4084V25.9424H138.653V23.4084H146.144ZM147.256 16.8176V19.4295H138.653V16.8176H147.256ZM159.615 30.3993V33H151.468V30.3993H159.615ZM152.546 16.8176V33H149.212V16.8176H152.546ZM171.929 30.3993V33H163.783V30.3993H171.929ZM164.861 16.8176V33H161.526V16.8176H164.861ZM184.7 30.3993V33H176.086V30.3993H184.7ZM177.175 16.8176V33H173.841V16.8176H177.175ZM183.577 23.4084V25.9424H176.086V23.4084H183.577ZM184.689 16.8176V19.4295H176.086V16.8176H184.689ZM186.645 16.8176H192.68C193.917 16.8176 194.981 17.0028 195.87 17.3733C196.766 17.7438 197.455 18.2921 197.937 19.0182C198.419 19.7444 198.659 20.6372 198.659 21.6968C198.659 22.5637 198.511 23.3083 198.215 23.9307C197.926 24.5457 197.515 25.0607 196.981 25.4756C196.455 25.8832 195.836 26.2092 195.125 26.4537L194.069 27.0094H188.823L188.801 24.4087H192.702C193.287 24.4087 193.773 24.3049 194.158 24.0975C194.543 23.89 194.832 23.601 195.025 23.2305C195.225 22.8601 195.325 22.4303 195.325 21.9413C195.325 21.4226 195.229 20.9743 195.036 20.5965C194.843 20.2186 194.551 19.9296 194.158 19.7295C193.765 19.5295 193.273 19.4295 192.68 19.4295H189.979V33H186.645V16.8176ZM195.692 33L192.002 25.7868L195.525 25.7646L199.26 32.8444V33H195.692Z" fill="#CF18C5"/>
</svg>
